# xmcd CD database file
#
# Track frame offsets:
#	150
#	15280
#	40137
#	61490
#	90263
#	103869
#
# Disc length: 1744 seconds
#
# Revision: 1
# Processed by: cddbd v1.5.2PL0 Copyright (c) Steve Scherf et al.
# Submitted via: CDex 1.70beta3
#
DISCID=3c06ce06
DTITLE=the pillows - TURN BACK
DYEAR=2004
DGENRE=J-Loud
TTITLE0=LIBERTY
TTITLE1=Tiny Boat
TTITLE2=あの頃に戻って
TTITLE3=キミと僕とお月様
TTITLE4=WANT TO SLEEP FOR
TTITLE5=僕らのハレー彗星
EXTD=YEAR: 2004
EXTT0=
EXTT1=
EXTT2=
EXTT3=
EXTT4=
EXTT5=
PLAYORDER=
